# xmcd CD database file
#
# Track frame offsets:
#	150
#	20010
#	33269
#	47538
#	62568
#	83856
#	99800
#	114624
#	129266
#	138861
#	160681
#	171561
#	185368
#
# Disc length: 2631 seconds
#
# Revision: 0
# Processed by: cddbd v1.5.2PL0 Copyright (c) Steve Scherf et al.
# Submitted via: CDex 1.70beta2
#
DISCID=9e0a450d
DTITLE=Jižní eskadrona - Zpěvník jižní eskadrony
DYEAR=1900
DGENRE=Country
TTITLE0=Hospůdka
TTITLE1=Kapkama si déšť
TTITLE2=Při polární záři
TTITLE3=Kam tak spěcháš
TTITLE4=My pluli dál a dál
TTITLE5=Seděla pod borovičkou
TTITLE6=Osada
TTITLE7=Nezlob se, že zpívámcountry
TTITLE8=Zuzana
TTITLE9=Osado zpívej
TTITLE10=Socha svobody
TTITLE11=Můj rodný dům
TTITLE12=Árie měsíce
EXTD=
EXTT0=
EXTT1=
EXTT2=
EXTT3=
EXTT4=
EXTT5=
EXTT6=
EXTT7=
EXTT8=
EXTT9=
EXTT10=
EXTT11=
EXTT12=
PLAYORDER=
